<svg xmlns="http://www.w3.org/2000/svg" width="339" height="372" viewBox="0 0 339 372" fill="none"><path d="M0.693359 372V0H219.907C243.305 0 263.822 5.40697 281.46 16.2209C299.458 26.6744 313.496 41.2733 323.575 60.0174C333.654 78.7616 338.693 100.57 338.693 125.442C338.693 151.035 333.474 173.384 323.035 192.488C312.956 211.233 298.918 225.831 280.92 236.285C263.282 246.738 242.945 251.965 219.907 251.965H120.019V372H0.693359ZM120.019 164.913H179.952C192.551 164.913 201.91 161.669 208.029 155.18C214.508 148.692 217.748 139.14 217.748 126.523C217.748 117.872 216.308 110.843 213.428 105.436C210.908 99.6686 206.769 95.343 201.01 92.4593C195.61 89.5756 188.591 88.1337 179.952 88.1337H120.019V164.913Z" fill="url(#paint0_linear_2_385)"></path><defs><linearGradient id="paint0_linear_2_385" x1="169.693" y1="0" x2="169.693" y2="372" gradientUnits="userSpaceOnUse"><stop stop-color="#DB9E95"></stop><stop offset="1" stop-color="#F0A7B4"></stop></linearGradient></defs></svg>